<svg id="Layer_1" data-name="Layer 1" xmlns="http://www.w3.org/2000/svg" viewBox="0 0 24 24"><defs><style>.cls-1{fill:none;stroke:#000;stroke-linecap:round;stroke-linejoin:round;}</style></defs><title>running-woman</title><path class="cls-1" d="M13.48,6a2,2,0,1,0-2-2A4.73,4.73,0,0,0,6.6,5.13c-2.24,2.2,4.22.36,4.22.36"/><path class="cls-1" d="M14.25,10.76l1.28.63a1,1,0,0,0,1-.09l3-2.36a1,1,0,0,0-1.2-1.6l-2.55,2L11.61,7.2a2,2,0,0,0-2.19.25L7.72,8.87a1.26,1.26,0,0,0-.31,1.5l.9,1.72"/><path class="cls-1" d="M14.08,14.13l2.35,1.48a1,1,0,0,1,.53.69l1,5a1,1,0,0,1-.79,1.18l-.19,0a1,1,0,0,1-1-.8l-.91-4.52-2-.67"/><path class="cls-1" d="M13.27,12.1l-2.33,6.67a1,1,0,0,1-1,.73H5a1,1,0,0,1,0-2H9.22l.76-8"/></svg>