<svg height="512" viewBox="0 0 128 128" width="512" xmlns="http://www.w3.org/2000/svg"><g><path d="m7 103a1.751 1.751 0 0 0 .391-.045c.678-.154 16.755-3.857 29.254-9.919 17.773-8.619 23.915-10.336 38.901-12.586a1.751 1.751 0 0 0 1.315-.968 205.687 205.687 0 0 0 10.329-27.1c1.029-3.418 1.854-7.129 2.652-10.716 3.764-16.93 7.32-32.916 31.158-32.916a1.75 1.75 0 0 0 0-3.5c-26.645 0-30.857 18.941-34.574 35.65-.822 3.688-1.6 7.173-2.587 10.468a206.284 206.284 0 0 1 -9.739 25.761c-14.743 2.248-21.156 4.113-38.985 12.759-12.134 5.883-28.343 9.619-28.5 9.656a1.75 1.75 0 0 0 .385 3.456z"/><path d="m121.639 51.083a1.752 1.752 0 0 0 -2.268.991c-9.833 25.088-20.971 42.057-25.308 48.188a8.312 8.312 0 0 1 -4 3.027c-33.329 12.033-82.7 15.928-83.2 15.966a1.75 1.75 0 0 0 .137 3.495h.136c.5-.038 50.34-3.968 84.121-16.164a11.8 11.8 0 0 0 5.667-4.3c4.407-6.236 15.735-23.486 25.707-48.93a1.751 1.751 0 0 0 -.992-2.273z"/><path d="m90.211 89.508c-.429.951-1.315 2.857-2.428 4.924a3.212 3.212 0 0 1 -1.737 1.483 49.815 49.815 0 0 1 -4.869 1.512 1.75 1.75 0 1 0 .845 3.4 53.541 53.541 0 0 0 5.223-1.627 6.7 6.7 0 0 0 3.618-3.111c1.166-2.162 2.091-4.152 2.539-5.147a1.75 1.75 0 1 0 -3.191-1.437z"/></g></svg>