<svg height="512" viewBox="0 0 128 128" width="512" xmlns="http://www.w3.org/2000/svg"><g><path d="m111.377 39.039a114.52 114.52 0 0 1 -8.734-32.179 1.751 1.751 0 0 0 -3.49.279 110.93 110.93 0 0 0 6.101 25.861 38.889 38.889 0 0 1 -8.6 4.389c-6.112 2.331-16.736 5.111-32.654 5.111s-26.542-2.78-32.651-5.109a38.889 38.889 0 0 1 -8.603-4.391 110.93 110.93 0 0 0 6.1-25.863 1.751 1.751 0 0 0 -3.49-.279 114.52 114.52 0 0 1 -8.734 32.179c-8.041 18.691-8.556 34.573-1.9 58.6 3.976 14.348 4.394 23.348 4.4 23.438a1.75 1.75 0 0 0 1.747 1.676h.074a1.749 1.749 0 0 0 1.676-1.82c-.015-.379-.427-9.45-4.522-24.228-5.66-20.424-5.953-34.7-.672-50.044 6.355 3.141 29.146 15.817 40.054 40.258.939 10.248 1.421 21.71 1.421 34.083a1.75 1.75 0 0 0 3.5 0c0-11.59-.419-22.385-1.238-32.161a16.42 16.42 0 0 0 5.686 0c-.819 9.775-1.238 20.571-1.238 32.161a1.75 1.75 0 0 0 3.5 0c0-12.373.477-23.835 1.416-34.083 10.892-24.4 33.7-37.1 40.055-40.26 5.28 15.343 4.987 29.62-.673 50.043-4.095 14.778-4.507 23.849-4.522 24.228a1.749 1.749 0 0 0 1.676 1.82h.074a1.751 1.751 0 0 0 1.747-1.676c0-.09.422-9.09 4.4-23.438 6.65-24.022 6.135-39.904-1.906-58.595zm-43.877 46.049a12.529 12.529 0 0 1 -7 0c-11.739-25.9-35.539-38.714-41.856-41.747.378-.968.77-1.939 1.192-2.921.588-1.365 1.133-2.708 1.647-4.031 4.583 3.037 17.401 9.611 42.517 9.611s37.934-6.571 42.516-9.607c.514 1.323 1.059 2.666 1.647 4.031.422.982.814 1.953 1.192 2.921-6.317 3.03-30.117 15.846-41.855 41.743z"/><path d="m64 26.909a1.75 1.75 0 0 0 1.75-1.75v-4.3a1.75 1.75 0 0 0 -3.5 0v4.305a1.75 1.75 0 0 0 1.75 1.745z"/></g></svg>