<?xml version="1.0" encoding="UTF-8"?>
<svg xmlns="http://www.w3.org/2000/svg" width="512" height="512" viewBox="0 0 128 128"><path d="M90.75,48.659a5.119,5.119,0,0,0-5.113-5.113H81.5c.106-.589.23-1.163.371-1.717a4.682,4.682,0,0,0-.847-4.057c-.029-.038-.063-.07-.093-.107a4.7,4.7,0,0,0,1.084-2.983V31.954a4.7,4.7,0,0,0-1.084-2.983c.03-.037.064-.069.093-.107a4.68,4.68,0,0,0,.847-4.056q-.212-.832-.371-1.718h4.141a5.113,5.113,0,0,0,0-10.226H81.5c.106-.589.23-1.163.371-1.717a4.739,4.739,0,0,0-4.607-5.9H50.74a4.73,4.73,0,0,0-3.76,1.839,4.683,4.683,0,0,0-.847,4.057c.141.555.265,1.129.371,1.718H42.363a5.113,5.113,0,0,0,0,10.226H46.5c-.106.589-.23,1.163-.371,1.717a4.678,4.678,0,0,0,.847,4.057c.029.038.063.07.093.107a4.7,4.7,0,0,0-1.084,2.983v2.728a4.7,4.7,0,0,0,1.084,2.983c-.03.037-.064.069-.093.107a4.677,4.677,0,0,0-.847,4.056c.141.555.265,1.129.371,1.718H42.363a5.113,5.113,0,0,0,0,10.226H46.5c-.106.589-.23,1.163-.371,1.717a4.684,4.684,0,0,0,.847,4.058c.029.037.063.07.093.106a4.7,4.7,0,0,0-1.084,2.983v2.728a4.7,4.7,0,0,0,1.084,2.983c-.03.036-.064.069-.093.106a4.683,4.683,0,0,0-.847,4.057c.141.555.265,1.129.371,1.718H42.363a5.113,5.113,0,0,0,0,10.226H46.5c-.106.589-.23,1.163-.371,1.717a4.679,4.679,0,0,0,.847,4.057c.029.038.063.07.093.107a4.7,4.7,0,0,0-1.084,2.983v2.728a4.7,4.7,0,0,0,1.084,2.983c-.03.037-.064.069-.093.107a4.677,4.677,0,0,0-.847,4.056q.211.833.371,1.718H42.363a5.113,5.113,0,0,0,0,10.226H46.5c-.106.589-.23,1.163-.371,1.717a4.739,4.739,0,0,0,4.607,5.9H77.26a4.738,4.738,0,0,0,4.607-5.9c-.141-.555-.265-1.129-.371-1.718h4.141a5.113,5.113,0,0,0,0-10.226H81.5c.106-.589.23-1.163.371-1.717a4.681,4.681,0,0,0-.847-4.057c-.029-.038-.063-.07-.093-.107a4.7,4.7,0,0,0,1.084-2.983V93.318a4.7,4.7,0,0,0-1.084-2.983c.03-.037.064-.069.093-.107a4.681,4.681,0,0,0,.847-4.056c-.141-.555-.265-1.129-.371-1.718h4.141a5.113,5.113,0,0,0,0-10.226H81.5c.106-.589.23-1.163.371-1.717a4.687,4.687,0,0,0-.847-4.058c-.029-.037-.063-.07-.093-.106a4.7,4.7,0,0,0,1.084-2.983V62.636a4.7,4.7,0,0,0-1.084-2.983c.03-.036.064-.069.093-.106a4.686,4.686,0,0,0,.847-4.057c-.141-.555-.265-1.129-.371-1.718h4.141A5.119,5.119,0,0,0,90.75,48.659ZM50.74,35.932h0a1.25,1.25,0,0,1-1.25-1.25V31.954a1.251,1.251,0,0,1,1.25-1.25H77.261a1.251,1.251,0,0,1,1.25,1.25v2.728a1.25,1.25,0,0,1-1.25,1.25H50.74ZM42.363,19.59a1.613,1.613,0,0,1,0-3.226h6.158a1.749,1.749,0,0,0,1.74-1.937,29.8,29.8,0,0,0-.737-4.145,1.2,1.2,0,0,1,.22-1.045,1.25,1.25,0,0,1,1-.487H77.26a1.25,1.25,0,0,1,1,.487,1.2,1.2,0,0,1,.22,1.045,29.655,29.655,0,0,0-.737,4.145,1.749,1.749,0,0,0,1.74,1.937h6.158a1.613,1.613,0,0,1,0,3.226H79.479a1.749,1.749,0,0,0-1.74,1.937,29.7,29.7,0,0,0,.737,4.146,1.192,1.192,0,0,1-.22,1.044,1.25,1.25,0,0,1-1,.487H50.74a1.25,1.25,0,0,1-1-.487,1.194,1.194,0,0,1-.22-1.045,29.8,29.8,0,0,0,.737-4.145,1.749,1.749,0,0,0-1.74-1.937Zm34.9,41.8h0a1.251,1.251,0,0,1,1.25,1.25v2.728a1.251,1.251,0,0,1-1.25,1.25H50.739a1.251,1.251,0,0,1-1.25-1.25V62.636a1.251,1.251,0,0,1,1.25-1.25H77.26Zm0,30.682h0a1.25,1.25,0,0,1,1.25,1.25v2.728a1.251,1.251,0,0,1-1.25,1.25H50.739a1.251,1.251,0,0,1-1.25-1.25V93.318a1.25,1.25,0,0,1,1.25-1.25H77.26Zm8.377,16.342a1.613,1.613,0,0,1,0,3.226H79.479a1.749,1.749,0,0,0-1.74,1.937,29.655,29.655,0,0,0,.737,4.145,1.2,1.2,0,0,1-.22,1.045,1.25,1.25,0,0,1-1,.487H50.74a1.25,1.25,0,0,1-1-.487,1.2,1.2,0,0,1-.22-1.045,29.8,29.8,0,0,0,.737-4.145,1.749,1.749,0,0,0-1.74-1.937H42.363a1.613,1.613,0,0,1,0-3.226h6.158a1.749,1.749,0,0,0,1.74-1.937,29.843,29.843,0,0,0-.737-4.146,1.192,1.192,0,0,1,.22-1.044,1.25,1.25,0,0,1,1-.487H77.26a1.25,1.25,0,0,1,1,.487,1.194,1.194,0,0,1,.22,1.045,29.655,29.655,0,0,0-.737,4.145,1.749,1.749,0,0,0,1.74,1.937Zm0-30.682a1.613,1.613,0,0,1,0,3.226H79.479a1.749,1.749,0,0,0-1.74,1.937,29.7,29.7,0,0,0,.737,4.146,1.193,1.193,0,0,1-.22,1.044,1.25,1.25,0,0,1-1,.487H50.74a1.25,1.25,0,0,1-1-.487,1.2,1.2,0,0,1-.22-1.045,29.8,29.8,0,0,0,.737-4.145,1.749,1.749,0,0,0-1.74-1.937H42.363a1.613,1.613,0,0,1,0-3.226h6.158a1.749,1.749,0,0,0,1.74-1.937,29.843,29.843,0,0,0-.737-4.146,1.192,1.192,0,0,1,.22-1.044,1.25,1.25,0,0,1,1-.487H77.26a1.25,1.25,0,0,1,1,.487,1.194,1.194,0,0,1,.22,1.045,29.655,29.655,0,0,0-.737,4.145,1.749,1.749,0,0,0,1.74,1.937ZM79.479,50.272a1.749,1.749,0,0,0-1.74,1.937,29.7,29.7,0,0,0,.737,4.146,1.192,1.192,0,0,1-.22,1.044,1.25,1.25,0,0,1-1,.487H50.74a1.25,1.25,0,0,1-1-.487,1.194,1.194,0,0,1-.22-1.045,29.8,29.8,0,0,0,.737-4.145,1.749,1.749,0,0,0-1.74-1.937H42.363a1.613,1.613,0,0,1,0-3.226h6.158a1.749,1.749,0,0,0,1.74-1.937,29.843,29.843,0,0,0-.737-4.146,1.193,1.193,0,0,1,.22-1.044,1.25,1.25,0,0,1,1-.487H77.26a1.25,1.25,0,0,1,1,.487,1.2,1.2,0,0,1,.22,1.045,29.655,29.655,0,0,0-.737,4.145,1.749,1.749,0,0,0,1.74,1.937h6.158a1.613,1.613,0,0,1,0,3.226Z"/></svg>
