<svg height="512" viewBox="0 0 128 128" width="512" xmlns="http://www.w3.org/2000/svg"><g><path d="m101.551 64.475c-9.034-20.955-7.862-29.594 1.077-57.44a1.75 1.75 0 0 0 -3.328-1.07c-8.8 27.4-10.3 37.294-1.917 57.621a195.078 195.078 0 0 1 -33.383 3.904 195.278 195.278 0 0 1 -33.379-3.9c8.379-20.33 6.879-30.229-1.921-57.625a1.75 1.75 0 0 0 -3.332 1.07c8.938 27.846 10.111 36.485 1.077 57.44-7.917 18.362-3.191 43.033 5.57 57.913a1.75 1.75 0 1 0 3.015-1.776c-6.312-10.721-9.434-24.65-8.962-37.2 11.241 2.3 23.448 6.7 31.614 11.455a12.957 12.957 0 0 0 1.564.771v25.862a1.75 1.75 0 0 0 3.5 0v-24.986a9.127 9.127 0 0 0 2.5 0v24.986a1.75 1.75 0 0 0 3.5 0v-25.865a12.871 12.871 0 0 0 1.563-.771c8.167-4.752 20.374-9.157 31.615-11.455.472 12.553-2.65 26.482-8.962 37.2a1.75 1.75 0 1 0 3.015 1.776c8.765-14.877 13.491-39.548 5.574-57.91zm-33 27.364a9 9 0 0 1 -9.108 0c-8.579-4.994-21.42-9.607-33.143-11.951a47.724 47.724 0 0 1 2.971-13.009 199.11 199.11 0 0 0 34.729 4.111 199.11 199.11 0 0 0 34.725-4.111 47.724 47.724 0 0 1 2.975 13.009c-11.723 2.344-24.564 6.957-33.146 11.951z"/><path d="m88.684 28.471a1.77 1.77 0 0 0 .353.036 1.75 1.75 0 0 0 1.712-1.4c.38-1.85.838-3.8 1.4-5.961a1.749 1.749 0 1 0 -3.386-.881c-.578 2.219-1.05 4.228-1.442 6.139a1.749 1.749 0 0 0 1.363 2.067z"/></g></svg>