<svg height="512" viewBox="0 0 128 128" width="512" xmlns="http://www.w3.org/2000/svg"><g><path d="m80.711 31.048a1.75 1.75 0 0 0 1.7-3.059l-1.2-.665a6.931 6.931 0 0 1 -3.411-4.624l-1.063-5.023a1.749 1.749 0 1 0 -3.423.725l1.062 5.022a10.431 10.431 0 0 0 5.138 6.96z"/><path d="m121.289 112.477-8.669-1.451a164.027 164.027 0 0 0 -15.662-8.152 11.872 11.872 0 0 1 -7.007-10.831l.19-69.535a17.279 17.279 0 0 0 -17.259-17.258h-65.882a1.75 1.75 0 0 0 0 3.5h65.882a13.773 13.773 0 0 1 13.759 13.75l-.19 69.531a15.373 15.373 0 0 0 9.071 14.031 162.376 162.376 0 0 1 15.572 8.127 1.75 1.75 0 0 0 .62.231l7.475 1.251c-.3 3.238-1.668 3.516-3.512 3.516a21.729 21.729 0 0 1 -4.651-.8 1.772 1.772 0 0 0 -.8-.036 52.321 52.321 0 0 1 -7.007.9 47.415 47.415 0 0 1 -11.319-1.461 16.339 16.339 0 0 0 -9.481.44 17.606 17.606 0 0 1 -5.913 1.02h-3.277a5.767 5.767 0 0 1 -5.761-5.761 17.883 17.883 0 0 1 1.551-7.021 31.569 31.569 0 0 0 2.493-14.791c-.307-3.963-.674-7.713-1.081-11.059a45.425 45.425 0 0 0 -4.7-15.691c-7.613-15.1-.124-30.744-.049-30.9a1.75 1.75 0 0 0 -2.312-2.358c-18.97 8.888-56.24 14.221-56.615 14.273a1.75 1.75 0 1 0 .49 3.466c1.45-.2 33.659-4.814 53.72-12.882-1.975 6.051-4.394 18 1.645 29.977a42.717 42.717 0 0 1 4.338 14.449c.41 3.383.771 7.083 1.075 11a28.071 28.071 0 0 1 -2.223 13.139 21.339 21.339 0 0 0 -1.833 8.4 9.271 9.271 0 0 0 9.261 9.261h3.272a21.1 21.1 0 0 0 7.085-1.222 12.821 12.821 0 0 1 7.454-.343 51.049 51.049 0 0 0 12.176 1.565 52.447 52.447 0 0 0 7.26-.885 23.8 23.8 0 0 0 5.2.825c7.073 0 7.073-6.388 7.073-8.487a1.75 1.75 0 0 0 -1.459-1.728z"/><path d="m77.218 97.885a1.75 1.75 0 0 0 -2.431.465c-1.2 1.76-2.512 5.865 1.06 8.8a1.75 1.75 0 1 0 2.221-2.7c-1.91-1.569-.655-3.717-.379-4.138a1.75 1.75 0 0 0 -.471-2.427z"/></g></svg>