<svg height="512" viewBox="0 0 128 128" width="512" xmlns="http://www.w3.org/2000/svg"><g><path d="m28.847 7.139a1.751 1.751 0 0 0 -3.49-.279 114.52 114.52 0 0 1 -8.734 32.179c-8.042 18.691-8.556 34.573-1.9 58.6 3.976 14.348 4.394 23.348 4.4 23.438a1.75 1.75 0 0 0 1.747 1.676h.074a1.749 1.749 0 0 0 1.676-1.82c-.016-.379-.427-9.45-4.522-24.228-6.418-23.158-5.946-38.411 1.74-56.279a115.829 115.829 0 0 0 9.009-33.287z"/><path d="m111.377 39.039a114.52 114.52 0 0 1 -8.734-32.179 1.751 1.751 0 0 0 -3.49.279 115.829 115.829 0 0 0 9.01 33.282c7.686 17.868 8.158 33.121 1.74 56.279-4.095 14.778-4.507 23.849-4.522 24.228a1.749 1.749 0 0 0 1.676 1.82h.074a1.751 1.751 0 0 0 1.747-1.676c0-.09.422-9.09 4.4-23.438 6.655-24.022 6.14-39.904-1.901-58.595z"/><path d="m90.051 95.685a24.328 24.328 0 0 1 -24.3-24.3v-7.53c0-10.646 6.766-15.6 7.049-15.8a1.75 1.75 0 1 0 -2.01-2.866 21.452 21.452 0 0 0 -6.79 9.226 21.452 21.452 0 0 0 -6.789-9.223 1.75 1.75 0 0 0 -2.01 2.866c.071.049 7.049 5.066 7.049 15.8v7.529a24.328 24.328 0 0 1 -24.3 24.3 1.75 1.75 0 0 0 0 3.5 27.7 27.7 0 0 0 19.859-8.391c.72 9.233 1.091 19.369 1.091 30.204a1.75 1.75 0 0 0 3.5 0c0-12.356-.474-23.817-1.4-34.093a27.724 27.724 0 0 0 3-5.807 27.724 27.724 0 0 0 3.008 5.811c-.929 10.276-1.4 21.737-1.4 34.093a1.75 1.75 0 0 0 3.5 0c0-10.835.367-20.971 1.088-30.206a27.7 27.7 0 0 0 19.859 8.391 1.75 1.75 0 0 0 0-3.5z"/><path d="m64 28.59a1.75 1.75 0 0 0 1.75-1.75v-19.84a1.75 1.75 0 0 0 -3.5 0v19.84a1.75 1.75 0 0 0 1.75 1.75z"/></g></svg>