<svg id="Layer_1" data-name="Layer 1" xmlns="http://www.w3.org/2000/svg" viewBox="0 0 24 24"><defs><style>.cls-1{fill:none;stroke:#000;stroke-linecap:round;stroke-linejoin:round;}</style></defs><title>yoga-pose</title><circle class="cls-1" cx="20.15" cy="7.85" r="2"/><path class="cls-1" d="M10.33,13.89l2.45,7.18a1.29,1.29,0,0,1-.86,1.65h0A1.29,1.29,0,0,1,10.39,22l-3-6.95"/><path class="cls-1" d="M7.35,15.05l-3,7a1.29,1.29,0,0,1-1.53.72h0a1.29,1.29,0,0,1-.86-1.65l2.31-6.78a6,6,0,0,1,3.22-3.54L11.5,8.94A3,3,0,0,0,13.24,5.8l-.46-3.39a1,1,0,0,1,.81-1.15h0a1,1,0,0,1,1.23.79l3.52,16.56a1,1,0,0,1-.79,1.23h0a1,1,0,0,1-1.21-.72L15.11,15h0a2.42,2.42,0,0,0-3.24-1.54"/></svg>