<svg id="Layer_1" data-name="Layer 1" xmlns="http://www.w3.org/2000/svg" viewBox="0 0 24 24"><defs><style>.cls-1{fill:none;stroke:#000;stroke-linecap:round;stroke-linejoin:round;}</style></defs><title>exercise-mat</title><path class="cls-1" d="M8.51,14.37a2,2,0,0,0-1.45-3.22A2.85,2.85,0,0,0,4.8,15.7a3.25,3.25,0,0,0,2.76,1.55A3.92,3.92,0,0,0,11,11.51,4.62,4.62,0,0,0,6.36,8.83,5.42,5.42,0,0,0,2,16.58,6.79,6.79,0,0,0,8.27,20.5h6a2,2,0,0,0,1.43-.59l6.47-6.47a1,1,0,0,0-.71-1.73h-3.8"/><path class="cls-1" d="M16.49,8.32a4.57,4.57,0,0,0-4.56-4.57"/><path class="cls-1" d="M10.31,16.11l5.21-5.31a3.36,3.36,0,0,0,.68-1,3.88,3.88,0,0,0,.29-1.49"/><path class="cls-1" d="M3.2,10.24,8.52,5a3.62,3.62,0,0,1,.65-.52,5.39,5.39,0,0,1,2.76-.76"/></svg>