<svg id="Layer_1" data-name="Layer 1" xmlns="http://www.w3.org/2000/svg" viewBox="0 0 24 24"><defs><style>.cls-1{fill:none;stroke:#000;stroke-linecap:round;stroke-linejoin:round;}</style></defs><title>exercise-ball</title><ellipse class="cls-1" cx="10.3" cy="5.7" rx="2.81" ry="1.62" transform="translate(-0.95 2.23) rotate(-11.8)"/><path class="cls-1" d="M11.76,2.51C13.88,2.7,15.6,3.9,16,5.66c.48,2.3-1.55,4.68-4.54,5.3s-5.8-.74-6.28-3"/><path class="cls-1" d="M18.53,5.1a5.87,5.87,0,0,1,.35,1.1c.78,3.72-2.2,7.5-6.66,8.43a8.4,8.4,0,0,1-8.29-2.57"/><path class="cls-1" d="M21.47,11.33a11.28,11.28,0,0,1-8.45,7A12,12,0,0,1,6.75,18"/><path class="cls-1" d="M21.5,12a9.5,9.5,0,1,1-19,0,9.49,9.49,0,0,1,4-7.73h0a9.42,9.42,0,0,1,5.24-1.75H12a9.49,9.49,0,0,1,9.47,8.83C21.49,11.55,21.5,11.77,21.5,12Z"/></svg>