<svg id="Layer_1" data-name="Layer 1" xmlns="http://www.w3.org/2000/svg" viewBox="0 0 24 24"><defs><style>.cls-1,.cls-2{fill:none;stroke:#000;stroke-linecap:round;stroke-linejoin:round;}.cls-2{fill-rule:evenodd;}</style></defs><title>healthy-food</title><path class="cls-1" d="M5.83,10.92c-.55-2.35.81-2.67,1.26-2.78"/><path class="cls-1" d="M6,15.52c-3.64-5.39-2.18-8.47.63-9.18A4.68,4.68,0,0,1,9,6.25a4.72,4.72,0,0,1,.45.16"/><path class="cls-1" d="M10.56,7.31a4.74,4.74,0,0,1,1.61-.92,4,4,0,0,1,2.28,0c2.44.54,3.83,3,1.88,7.05"/><path class="cls-1" d="M12.12,4.4c2.22-.27,3.71-1.74,3.43-2.26S14,1.81,13.17,2.09A5,5,0,0,0,11.3,3.31a3.69,3.69,0,0,0-.62.82"/><path class="cls-1" d="M9.36,2.66A2.78,2.78,0,0,1,10.75,5a2.33,2.33,0,0,1,0,.53"/><path class="cls-2" d="M17,17.57h0c.38,1.78-.35,3.53-2.26,3.85a81.58,81.58,0,0,1-12.22.4,1.34,1.34,0,0,1-1.24-1.16h0A1.35,1.35,0,0,1,2,19.1a82.51,82.51,0,0,1,11.46-4.24C15.38,14.43,16.72,15.78,17,17.57Z"/><path class="cls-1" d="M17,17.57h0c.38,1.78-.35,3.53-2.26,3.85a81.58,81.58,0,0,1-12.22.4,1.34,1.34,0,0,1-1.24-1.16h0A1.35,1.35,0,0,1,2,19.1a82.51,82.51,0,0,1,11.46-4.24C15.38,14.43,16.72,15.78,17,17.57Z"/><path class="cls-1" d="M20.51,15.85c.11-.1.22-.21.32-.32.92-1,1.27-2,.78-2.23s-1.64.4-2.56,1.4a7.11,7.11,0,0,1-.67.66"/><path class="cls-1" d="M19,18.64l.94.43c1.23.57,2.53.72,2.89.32s-.33-1.19-1.56-1.77c-.13-.07-.27-.12-.41-.18,1.31-.32,2.26-.85,2.18-1.25a.78.78,0,0,0-.73-.57"/><path class="cls-2" d="M13,18.21a6.78,6.78,0,0,0-.52-2.66c-.05-.13-.11-.25-.16-.38"/><path class="cls-2" d="M9.71,18.86a4.32,4.32,0,0,1,.49,2.49,3.4,3.4,0,0,1-.06.46"/><path class="cls-2" d="M5.44,19.7a2.63,2.63,0,0,0-.28-1.91"/></svg>