<svg id="Layer_1" data-name="Layer 1" xmlns="http://www.w3.org/2000/svg" viewBox="0 0 24 24"><defs><style>.cls-1,.cls-2{fill:none;stroke:#000;stroke-linecap:round;}.cls-1{stroke-linejoin:round;}.cls-2{stroke-miterlimit:10;}</style></defs><title>kettlebell</title><path class="cls-1" d="M7.92,7l-1-2.07A2.05,2.05,0,0,1,8.49,1.93a34.31,34.31,0,0,1,7,0,2.05,2.05,0,0,1,1.61,3L16.08,7"/><path class="cls-1" d="M8.49,3.93a34.31,34.31,0,0,1,7,0"/><path class="cls-1" d="M10.49,22.25h3a5,5,0,0,0,2.87-.88,7.65,7.65,0,1,0-8.69.05A4.94,4.94,0,0,0,10.49,22.25Z"/><circle class="cls-2" cx="12" cy="14.86" r="3.5"/></svg>