<svg id="Layer_1" data-name="Layer 1" xmlns="http://www.w3.org/2000/svg" viewBox="0 0 24 24"><defs><style>.cls-1,.cls-2{fill:none;stroke:#000;stroke-linecap:round;stroke-linejoin:round;}</style></defs><title>podium-star</title><path class="cls-1" d="M12.17,2.21,13,3.87a.18.18,0,0,0,.14.11L15,4.25a.19.19,0,0,1,.11.33L13.76,5.87A.19.19,0,0,0,13.7,6L14,7.87a.19.19,0,0,1-.28.21l-1.64-.87a.19.19,0,0,0-.18,0l-1.64.87A.19.19,0,0,1,10,7.87L10.3,6a.19.19,0,0,0-.06-.17L8.91,4.58A.19.19,0,0,1,9,4.25L10.86,4A.18.18,0,0,0,11,3.87l.83-1.66A.18.18,0,0,1,12.17,2.21Z"/><polyline class="cls-2" points="2.5 20.5 2.5 13.5 6.5 13.5"/><polyline class="cls-2" points="8.5 20.5 8.5 10.5 15.5 10.5 15.5 20.5"/><polyline class="cls-2" points="17.5 16.5 21.5 16.5 21.5 20.5"/><line class="cls-2" x1="1.5" y1="20.5" x2="22.5" y2="20.5"/></svg>