<svg id="Layer_1" data-name="Layer 1" xmlns="http://www.w3.org/2000/svg" viewBox="0 0 24 24"><defs><style>.cls-1{fill:none;stroke:#000;stroke-linecap:round;stroke-linejoin:round;}</style></defs><title>route-markers</title><path class="cls-1" d="M15.64,4.5a6.21,6.21,0,0,1,6.2,6.2c0,4.83-6.2,10.8-6.2,10.8s-6.21-6-6.21-10.8A6.21,6.21,0,0,1,15.64,4.5Z"/><circle class="cls-1" cx="15.64" cy="10.7" r="2.55"/><path class="cls-1" d="M8.82,16.24C8.13,17,7.64,17.5,7.64,17.5S2.16,12.23,2.16,8a5.48,5.48,0,0,1,9-4.18"/><path class="cls-1" d="M7.64,10.22a2.25,2.25,0,1,1,0-4.5,2.26,2.26,0,0,1,1.41.5"/></svg>