<svg id="Layer_1" data-name="Layer 1" xmlns="http://www.w3.org/2000/svg" viewBox="0 0 24 24"><defs><style>.cls-1{fill:none;stroke:#000;stroke-linecap:round;stroke-linejoin:round;}</style></defs><title>shower</title><polyline class="cls-1" points="9 6.38 3.5 7.75 3.5 10.5 14.5 10.5 14.5 7.75 10.8 6.83"/><line class="cls-1" x1="4.5" y1="12.5" x2="4.5" y2="13.5"/><line class="cls-1" x1="7.5" y1="13.5" x2="7.5" y2="14.5"/><line class="cls-1" x1="13.5" y1="13.5" x2="13.5" y2="14.5"/><line class="cls-1" x1="4.5" y1="15.5" x2="4.5" y2="16.5"/><line class="cls-1" x1="7.5" y1="16.5" x2="7.5" y2="17.5"/><line class="cls-1" x1="13.5" y1="16.5" x2="13.5" y2="17.5"/><line class="cls-1" x1="4.5" y1="18.5" x2="4.5" y2="19.5"/><line class="cls-1" x1="7.5" y1="19.5" x2="7.5" y2="20.5"/><line class="cls-1" x1="10.5" y1="12.5" x2="10.5" y2="13.5"/><line class="cls-1" x1="10.5" y1="15.5" x2="10.5" y2="16.5"/><line class="cls-1" x1="10.5" y1="18.5" x2="10.5" y2="19.5"/><line class="cls-1" x1="13.5" y1="19.5" x2="13.5" y2="20.5"/><path class="cls-1" d="M9,6.38A4,4,0,0,1,13,2.5h2.5a4,4,0,0,1,4,4v15"/></svg>