<svg id="Layer_1" data-name="Layer 1" xmlns="http://www.w3.org/2000/svg" viewBox="0 0 24 24"><defs><style>.cls-1{fill:none;stroke:#000;stroke-linecap:round;stroke-linejoin:round;}</style></defs><title>sleep-moon</title><path class="cls-1" d="M8.36,15.32a7.3,7.3,0,0,1-2-6.75A.58.58,0,0,0,5.5,8a7,7,0,0,0-.89.76A7.31,7.31,0,1,0,14.94,19.08a7,7,0,0,0,.76-.9.57.57,0,0,0,0-.65.59.59,0,0,0-.61-.25A7.31,7.31,0,0,1,8.36,15.32Z"/><polyline class="cls-1" points="11.5 10.5 14.5 10.5 11.5 13.5 14.5 13.5"/><polyline class="cls-1" points="9.5 2.5 14.5 2.5 9.5 7.5 14.5 7.5"/><polyline class="cls-1" points="17.5 5.5 21.5 5.5 17.5 9.5 21.5 9.5"/></svg>