<svg id="Layer_1" data-name="Layer 1" xmlns="http://www.w3.org/2000/svg" viewBox="0 0 24 24"><defs><style>.cls-1,.cls-2,.cls-3,.cls-4{fill:none;stroke:#000;}.cls-1,.cls-4{stroke-miterlimit:10;}.cls-2,.cls-3,.cls-4{stroke-linecap:round;}.cls-2,.cls-3{stroke-linejoin:round;}</style></defs><title>smartwatch-ekg</title><rect class="cls-1" x="4.5" y="4.5" width="15" height="15" rx="2"/><path class="cls-2" d="M20.75,11.5a.5.5,0,0,0,.5-.5V9a.5.5,0,0,0-.5-.5"/><path class="cls-3" d="M17.75,4.5s-.82,0-1.7-2.37a1,1,0,0,0-.89-.63H8.84A1,1,0,0,0,8,2.13C7.07,4.5,6.25,4.5,6.25,4.5"/><path class="cls-3" d="M6.25,19.5s.82,0,1.7,2.37a1,1,0,0,0,.89.63h6.32a1,1,0,0,0,.89-.63c.88-2.37,1.7-2.37,1.7-2.37"/><path class="cls-4" d="M17,12.82H15.54a.57.57,0,0,1-.52-.4l-.22-.92c-.28-1.17-.74-1.17-1,0l-.64,2.66c-.28,1.15-.74,1.15-1,0L11,9.82c-.28-1.12-.74-1.12-1,0l-.66,2.61a.56.56,0,0,1-.51.39H7"/></svg>