<svg id="Layer_1" data-name="Layer 1" xmlns="http://www.w3.org/2000/svg" viewBox="0 0 24 24"><defs><style>.cls-1{fill:none;stroke:#000;stroke-linecap:round;stroke-linejoin:round;}</style></defs><title>strength</title><path class="cls-1" d="M20.5,12.24a5,5,0,0,0-4.85,2.58"/><path class="cls-1" d="M16.24,13.07a4.67,4.67,0,0,0-6.9,1.06"/><path class="cls-1" d="M10.3,16.87a3.85,3.85,0,0,0,4-.21"/><path class="cls-1" d="M9.43,14A5.37,5.37,0,0,0,11,10.41a13.76,13.76,0,0,1,.71-3.71"/><path class="cls-1" d="M17.08,18.8S11,24.16,4,17.31a2.07,2.07,0,0,1-.41-2.08c1-2.53,2-7.14,6.14-11.2l2.83-1.92a1,1,0,0,1,1.28.08l2,1.87a1,1,0,0,1,0,1.43c-.83.85-2.35,1.8-3.84-.48"/><path class="cls-1" d="M16,19.54s.9.21,1.49,2.55"/></svg>