<svg id="Layer_1" data-name="Layer 1" xmlns="http://www.w3.org/2000/svg" viewBox="0 0 24 24"><defs><style>.cls-1{fill:none;stroke:#000;stroke-linecap:round;stroke-linejoin:round;}</style></defs><title>tape-measure</title><path class="cls-1" d="M7.12,8.1c0,1.05,1.64,1.9,3.65,1.9,2.52,0,4.4-1.06,4.4-2.37,0-1.64-2.39-3-5.54-3C5.69,4.66,2.5,6.32,2.5,8.37c0,2.56,4,4.64,8.91,4.64,6.16,0,10.09-2.6,10.09-5.8v6.33c0,3.21-3.93,5.8-10.09,5.8-4.92,0-8.91-2.07-8.91-4.64V8.37"/><line class="cls-1" x1="5.67" y1="14.82" x2="5.67" y2="18.25"/><line class="cls-1" x1="8.83" y1="15.71" x2="8.83" y2="19.15"/><line class="cls-1" x1="12" y1="15.9" x2="12" y2="19.34"/><line class="cls-1" x1="15.17" y1="15.55" x2="15.17" y2="18.98"/><line class="cls-1" x1="18.33" y1="14.47" x2="18.33" y2="17.89"/></svg>