<svg id="Layer_1" data-name="Layer 1" xmlns="http://www.w3.org/2000/svg" viewBox="0 0 24 24"><defs><style>.cls-1,.cls-2{fill:none;stroke:#000;stroke-linecap:round;stroke-linejoin:round;}.cls-2{fill-rule:evenodd;}</style></defs><title>water-bottle</title><path class="cls-1" d="M9.5,5.5v-1c0-.55.32-1,.71-1h3.58c.39,0,.71.45.71,1v1"/><path class="cls-1" d="M15.5,2.5c1.91-1.25,4.5-1.09,4.5,1s-2.72,2-2.72,2H11.52"/><path class="cls-1" d="M14.5,5.5a2,2,0,0,1,2,2V8.85A1.88,1.88,0,0,1,16,10.14a2,2,0,0,0,0,2.72,1.88,1.88,0,0,1,.46,1.29V20.5a2,2,0,0,1-2,2h-5a2,2,0,0,1-2-2V14.15A1.88,1.88,0,0,1,8,12.86a2,2,0,0,0,0-2.72A1.88,1.88,0,0,1,7.5,8.85V7.5a2,2,0,0,1,2-2"/><path class="cls-2" d="M11,2a1.39,1.39,0,0,1,2,0"/></svg>