<svg id="Layer_1" data-name="Layer 1" xmlns="http://www.w3.org/2000/svg" viewBox="0 0 24 24"><defs><style>.cls-1{fill:none;stroke:#000;stroke-linecap:round;stroke-linejoin:round;}</style></defs><title>woman-figure</title><path class="cls-1" d="M6.36,1.68A8.29,8.29,0,0,1,8.23,6.51c.06,2.25-1,3.75-2.14,5.89-1.53,2.91-1,5,1.07,9.92"/><path class="cls-1" d="M17.64,1.68a8.29,8.29,0,0,0-1.87,4.83c-.06,2.25,1,3.75,2.14,5.89,1.53,2.91,1,5-1.07,9.92"/><path class="cls-1" d="M6,12.81a20.89,20.89,0,0,0,6,.77,20.89,20.89,0,0,0,6-.77"/><path class="cls-1" d="M14.5,16.06a4.27,4.27,0,0,0-2.5,3,4.27,4.27,0,0,0-2.5-3"/><line class="cls-1" x1="12" y1="22.32" x2="12" y2="19.06"/><line class="cls-1" x1="12" y1="9.25" x2="12" y2="8.75"/></svg>