<svg id="Layer_1" data-name="Layer 1" xmlns="http://www.w3.org/2000/svg" viewBox="0 0 24 24"><defs><style>.cls-1,.cls-2,.cls-3{fill:none;stroke:#000;stroke-linecap:round;}.cls-1,.cls-2{stroke-miterlimit:10;}.cls-2{fill-rule:evenodd;}.cls-3{stroke-linejoin:round;}</style></defs><title>workout-playlist</title><rect class="cls-1" x="7.29" y="11.04" width="3" height="12" rx="1" transform="translate(-9.47 11.21) rotate(-45)"/><rect class="cls-1" x="14.36" y="3.96" width="3" height="12" rx="1" transform="translate(34.13 5.79) rotate(135)"/><line class="cls-1" x1="15.16" y1="12.09" x2="11.62" y2="15.62"/><line class="cls-1" x1="10.21" y1="14.21" x2="13.74" y2="10.67"/><path class="cls-2" d="M17.12,7.29a1.39,1.39,0,0,1,1.42,1.42"/><path class="cls-2" d="M7.54,19.71a1.39,1.39,0,0,1-1.42-1.42"/><path class="cls-3" d="M7.83,8.28c0,1-1,1.72-2.29,1.72S3.25,9.23,3.25,8.28s1-1.72,2.29-1.72A2.08,2.08,0,0,1,7.83,8.27"/><path class="cls-3" d="M7.83,8.28V2.71a.57.57,0,0,1,.71-.55l1.58.39"/></svg>