<svg id="Layer_1" data-name="Layer 1" xmlns="http://www.w3.org/2000/svg" viewBox="0 0 24 24"><defs><style>.cls-1,.cls-2{fill:none;stroke:#000;stroke-linecap:round;stroke-linejoin:round;}</style></defs><title>weight-loss</title><path class="cls-1" d="M6.11,1.68A8.29,8.29,0,0,1,8,6.51C8,8.76,7,10.26,5.84,12.4c-1.53,2.91-1,5,1.07,9.92"/><path class="cls-1" d="M17.39,1.68a8.29,8.29,0,0,0-1.87,4.83c-.06,2.25,1,3.75,2.14,5.89,1.53,2.91,1,5-1.07,9.92"/><path class="cls-1" d="M5.77,12.81a20.89,20.89,0,0,0,6,.77,20.89,20.89,0,0,0,6-.77"/><path class="cls-1" d="M14.25,16.06a4.27,4.27,0,0,0-2.5,3,4.27,4.27,0,0,0-2.5-3"/><line class="cls-1" x1="11.83" y1="22.32" x2="11.83" y2="18.25"/><line class="cls-1" x1="11.75" y1="10.25" x2="11.75" y2="9.75"/><line class="cls-2" x1="21.31" y1="6.65" x2="18.31" y2="6.65"/><line class="cls-2" x1="19.92" y1="4.65" x2="18.31" y2="6.65"/><line class="cls-2" x1="19.92" y1="8.65" x2="18.31" y2="6.65"/><line class="cls-2" x1="2.19" y1="6.65" x2="5.19" y2="6.65"/><line class="cls-2" x1="3.58" y1="8.65" x2="5.19" y2="6.65"/><line class="cls-2" x1="3.58" y1="4.65" x2="5.19" y2="6.65"/></svg>