<svg id="Layer_1" data-name="Layer 1" xmlns="http://www.w3.org/2000/svg" viewBox="0 0 24 24"><defs><style>.cls-1{fill:none;stroke:#000;stroke-linecap:round;stroke-linejoin:round;}</style></defs><title>running-sneaker</title><path class="cls-1" d="M4.06,7.81A15.91,15.91,0,0,1,8.79,3.49l.46,1.18a5.75,5.75,0,0,0,3,3.37"/><path class="cls-1" d="M12.84,17.3,3.15,9.53a.47.47,0,0,0-.71.57h0a15.71,15.71,0,0,0,3.65,4.61L12,19.42a5.28,5.28,0,0,0,3.28,1.15h4.06c2.61,0,4-3.49-1.33-4.47"/><path class="cls-1" d="M14.06,5.18a5.94,5.94,0,0,0,.33,3.26"/><line class="cls-1" x1="13.8" y1="10.62" x2="16.25" y2="10.07"/><line class="cls-1" x1="14.63" y1="12.58" x2="17.08" y2="12.03"/><line class="cls-1" x1="15.52" y1="14.48" x2="17.97" y2="13.93"/></svg>