<svg id="Layer_1" data-name="Layer 1" xmlns="http://www.w3.org/2000/svg" viewBox="0 0 24 24"><defs><style>.cls-1{fill:none;stroke:#000;stroke-linecap:round;stroke-linejoin:round;}</style></defs><title>weightlifting</title><path class="cls-1" d="M20.57,5.63s-4,2.26-2.51,6.44"/><path class="cls-1" d="M17.12,10.48a4.68,4.68,0,0,0-3.69,5.94"/><path class="cls-1" d="M16.13,17.47a3.87,3.87,0,0,0,2.42-3.15"/><path class="cls-1" d="M13.37,16.24A5.92,5.92,0,0,0,10,12.16"/><path class="cls-1" d="M21.8,15.22c-.54,2.42-2.48,6.71-9.41,7.3a2.56,2.56,0,0,1-1.85-1c-1.48-1.65-4.32-4.74-5.21-9.11"/><circle class="cls-1" cx="7.2" cy="6.48" r="5"/><circle class="cls-1" cx="7.2" cy="6.48" r="1.69"/></svg>