<svg id="Layer_1" data-name="Layer 1" xmlns="http://www.w3.org/2000/svg" viewBox="0 0 24 24"><defs><style>.cls-1{fill:none;stroke:#000;stroke-linecap:round;stroke-linejoin:round;}</style></defs><title>no-junk-food</title><line class="cls-1" x1="10.25" y1="6.82" x2="10.72" y2="6.68"/><line class="cls-1" x1="13.62" y1="5.54" x2="13.35" y2="5.96"/><line class="cls-1" x1="16.26" y1="6.64" x2="16.71" y2="6.86"/><path class="cls-1" d="M9.33,12.33c-1.34,0-1.34-.66-2.67-.66s-1.34.66-2.67.66"/><path class="cls-1" d="M12.08,14.1a4.59,4.59,0,0,0-1-.1h-7c-.85-.07-.85,3.07,0,3H15"/><path class="cls-1" d="M9.33,12.33h1l-.13-.13A2.51,2.51,0,0,1,9.33,12.33Z"/><path class="cls-1" d="M5,18.24s-.13,2.52,7,2.52c3.07,0,4.79-.47,5.75-1"/><path class="cls-1" d="M14.49,12.33c1.5.05,1.45-.66,2.83-.66s1.33.66,2.67.66M19,17h.86c.85.07.85-3.07,0-3H16.06m-4-4H19a1.27,1.27,0,0,0,1.27-1.27h0S20.37,3.67,12,3.67a12,12,0,0,0-5.3,1"/><path class="cls-1" d="M4.5,6.52a4.21,4.21,0,0,0-.75,2.21A1.27,1.27,0,0,0,5,10H8"/><line class="cls-1" x1="2.99" y1="3" x2="21.01" y2="21.03"/></svg>