<svg height="512" viewBox="0 0 128 128" width="512" xmlns="http://www.w3.org/2000/svg"><g><circle cx="46.245" cy="20.668" r="2.027"/><path d="m94.834 68.414a72.522 72.522 0 0 1 -5.534-20.378 63.3 63.3 0 0 1 .489-16.409 15.043 15.043 0 0 0 4.364-5.461 15.985 15.985 0 0 0 -1.672-16.179 20.778 20.778 0 0 1 -2.101-3.687 1.75 1.75 0 0 0 -3.211 1.4 24.325 24.325 0 0 0 2.452 4.309 12.372 12.372 0 0 1 1.37 12.668 10.931 10.931 0 0 1 -8.927 6.387c-6.692.5-9.376-3.714-9.5-3.922a1.75 1.75 0 0 0 -3.012 1.782c.144.244 3.432 5.683 11.405 5.683q.663 0 1.372-.052a13.492 13.492 0 0 0 3.617-.783 68.623 68.623 0 0 0 -.126 14.576 71.554 71.554 0 0 0 3.772 16.209c-2.482 1.621-10.215 5.682-25.592 5.682s-23.109-4.061-25.588-5.685a71.5 71.5 0 0 0 3.769-16.18 68.858 68.858 0 0 0 -.123-14.606 13.476 13.476 0 0 0 3.617.783c.473.035.929.052 1.372.052 7.971 0 11.261-5.439 11.405-5.683a1.75 1.75 0 0 0 -3.019-1.772c-.026.045-2.687 4.427-9.5 3.912a10.931 10.931 0 0 1 -8.927-6.387 12.372 12.372 0 0 1 1.37-12.668 24.325 24.325 0 0 0 2.455-4.305 1.75 1.75 0 0 0 -3.211-1.4 20.778 20.778 0 0 1 -2.1 3.683 15.985 15.985 0 0 0 -1.675 16.179 15.037 15.037 0 0 0 4.365 5.461 63.147 63.147 0 0 1 .49 16.442 72.584 72.584 0 0 1 -5.529 20.349c-5.2 12.084-5.535 22.339-1.241 37.836a74.377 74.377 0 0 1 2.786 14.823 1.751 1.751 0 0 0 1.747 1.676h.075a1.749 1.749 0 0 0 1.675-1.819 75.965 75.965 0 0 0 -2.91-15.614c-3.49-12.593-3.749-21.479-.668-30.889 4.702 2.438 18.027 10.382 24.581 24.973.591 6.5.892 13.759.892 21.6a1.75 1.75 0 0 0 3.5 0c0-7.107-.244-13.756-.726-19.806.347.034.713.06 1.118.06s.771-.026 1.118-.06c-.482 6.05-.726 12.7-.726 19.806a1.75 1.75 0 0 0 3.5 0c0-7.838.3-15.1.892-21.6 6.554-14.591 19.879-22.535 24.586-24.974 3.081 9.41 2.822 18.3-.668 30.889a75.965 75.965 0 0 0 -2.91 15.614 1.749 1.749 0 0 0 1.675 1.819h.075a1.751 1.751 0 0 0 1.747-1.676 74.377 74.377 0 0 1 2.786-14.823c4.294-15.496 3.958-25.749-1.241-37.835zm-29.054 29.128a7.592 7.592 0 0 1 -3.559 0c-7.313-15.874-21.63-24.073-26.374-26.442.175-.435.345-.868.534-1.307.274-.637.53-1.264.779-1.887 3.483 2.115 11.745 5.829 26.84 5.829s23.357-3.714 26.84-5.829c.249.623.5 1.25.779 1.887.189.439.359.872.534 1.307-4.743 2.369-19.06 10.567-26.373 26.442z"/><circle cx="81.755" cy="20.668" r="2.027"/><path d="m64 60.99a1.75 1.75 0 0 0 1.75-1.75v-2.055a1.75 1.75 0 0 0 -3.5 0v2.055a1.75 1.75 0 0 0 1.75 1.75z"/></g></svg>