<svg id="Layer_1" data-name="Layer 1" xmlns="http://www.w3.org/2000/svg" viewBox="0 0 24 24"><defs><style>.cls-1{fill:none;stroke:#000;stroke-linecap:round;stroke-linejoin:round;}</style></defs><title>no-carbs</title><line class="cls-1" x1="2.99" y1="3.29" x2="21.01" y2="21.31"/><path class="cls-1" d="M19.34,17.69l-.41-7.38h0a1,1,0,0,1,.25-.76A2.81,2.81,0,0,0,20,7.66c0-2.36-3.58-4.28-8-4.28A12.15,12.15,0,0,0,6.31,4.66"/><path class="cls-1" d="M4.3,6.52A2.42,2.42,0,0,0,4,7.65a2.79,2.79,0,0,0,.84,1.9,1,1,0,0,1,.24.71c-.09,1.53-.37,6.56-.51,9A1.22,1.22,0,0,0,5.79,20.5H18.27"/></svg>