<svg height="512" viewBox="0 0 128 128" width="512" xmlns="http://www.w3.org/2000/svg"><g><path d="m114.36 52.667h-17.872l-8.843-18.474a8.274 8.274 0 0 0 -4.685-4.193l-21.611-7.629a11.816 11.816 0 0 0 -12.227 2.774l-14.643 14.64a8.322 8.322 0 0 0 -.362 11.5 8.122 8.122 0 0 0 11.66.179l12.829-12.832 7.016 2.476-57.993 57.986a8.121 8.121 0 0 0 5.743 13.864 8.066 8.066 0 0 0 5.743-2.379l32.63-32.638 9.915 9.921-15.468 15.463a8.323 8.323 0 0 0 -.363 11.5 8.065 8.065 0 0 0 5.794 2.557h.127a8.059 8.059 0 0 0 5.74-2.382l21.4-21.394a8.134 8.134 0 0 0 0-11.486l-15.639-15.647 14.768-14.773 5.036 10.53a11.816 11.816 0 0 0 10.6 6.685h20.965a8.125 8.125 0 0 0 8.12-8.371 8.323 8.323 0 0 0 -8.38-7.877zm-97.719 55.433a4.591 4.591 0 0 1 -3.268 1.354 4.621 4.621 0 0 1 -3.269-7.889l33.664-33.665a8.07 8.07 0 0 0 2.241 4.3l3.262 3.264zm42.9-40.394 16.873 16.894a4.628 4.628 0 0 1 0 6.537l-21.4 21.393a4.539 4.539 0 0 1 -3.34 1.353 4.585 4.585 0 0 1 -3.3-1.457 4.8 4.8 0 0 1 .289-6.622l16.7-16.7a1.75 1.75 0 0 0 0-2.475l-16.888-16.9a4.63 4.63 0 0 1 0-6.537l21.585-21.572a1.749 1.749 0 0 0 -.655-2.888l-10.674-3.768a1.766 1.766 0 0 0 -.582-.1 1.748 1.748 0 0 0 -1.237.512l-13.612 13.609a4.49 4.49 0 0 1 -3.338 1.353 4.594 4.594 0 0 1 -3.3-1.456 4.8 4.8 0 0 1 .289-6.623l14.649-14.639a8.3 8.3 0 0 1 8.588-1.948l21.612 7.628a4.789 4.789 0 0 1 2.61 6.806 4.633 4.633 0 0 1 -.839 1.086l-24.033 24.044a1.75 1.75 0 0 0 0 2.474zm58.406-3.7a4.589 4.589 0 0 1 -3.318 1.4h-20.965a8.3 8.3 0 0 1 -7.447-4.695l-5.57-11.646 5.4-5.4a8.091 8.091 0 0 0 1.392-1.822l6.372 13.323a1.751 1.751 0 0 0 1.579 1h18.975a4.8 4.8 0 0 1 4.888 4.481 4.6 4.6 0 0 1 -1.309 3.363z"/><path d="m95.839 34.134a11.757 11.757 0 1 0 -11.757-11.757 11.771 11.771 0 0 0 11.757 11.757zm0-20.014a8.257 8.257 0 1 1 -8.257 8.257 8.266 8.266 0 0 1 8.257-8.257z"/><path d="m7 45.94h17.07a1.75 1.75 0 0 0 0-3.5h-17.07a1.75 1.75 0 0 0 0 3.5z"/><path d="m23.247 34.694h8.07a1.75 1.75 0 0 0 0-3.5h-8.07a1.75 1.75 0 0 0 0 3.5z"/><path d="m17.247 53.685a1.75 1.75 0 0 0 0 3.5h12.07a1.75 1.75 0 1 0 0-3.5z"/></g></svg>