<svg id="Layer_1" data-name="Layer 1" xmlns="http://www.w3.org/2000/svg" viewBox="0 0 24 24"><defs><style>.cls-1,.cls-2{fill:none;stroke:#000;stroke-linecap:round;stroke-linejoin:round;}.cls-1{stroke-width:1.05px;}.cls-2{stroke-width:1.05px;}</style></defs><title>abs</title><path class="cls-1" d="M2,2.53c.11.08.72,10.38,10,5.74"/><path class="cls-1" d="M22,2.53c-.11.08-.72,10.38-10,5.74"/><line class="cls-1" x1="12" y1="4.63" x2="12" y2="8.27"/><path class="cls-1" d="M3.5,9.41a43.6,43.6,0,0,1,2,12"/><path class="cls-1" d="M20.5,9.41a43.6,43.6,0,0,0-2,12"/><path class="cls-1" d="M8.31,12.6s.93,1.84,3.69.92"/><path class="cls-1" d="M12,11.68v1.84c2.76.92,3.69-.92,3.69-.92"/><path class="cls-1" d="M8.31,16.29s.93,1.84,3.69.92"/><path class="cls-1" d="M12,15.36v1.85c2.76.92,3.69-.92,3.69-.92"/><path class="cls-1" d="M8.31,20s.93,1.84,3.69.92"/><path class="cls-1" d="M12,19.05v1.84c2.76.92,3.69-.92,3.69-.92"/><path class="cls-2" d="M6.61,6.17A.13.13,0,0,1,6.74,6a.13.13,0,0,1,.13.13"/><path class="cls-2" d="M6.87,6.17a.13.13,0,0,1-.13.14.13.13,0,0,1-.13-.14"/><path class="cls-2" d="M17.13,6.17A.13.13,0,0,1,17.26,6a.13.13,0,0,1,.13.13"/><path class="cls-2" d="M17.39,6.17a.13.13,0,0,1-.13.14.13.13,0,0,1-.13-.14"/></svg>