<svg id="Layer_1" data-name="Layer 1" xmlns="http://www.w3.org/2000/svg" viewBox="0 0 24 24"><defs><style>.cls-1{fill:none;stroke:#000;stroke-linecap:round;stroke-linejoin:round;}</style></defs><title>jump-rope</title><path class="cls-1" d="M13.07,19.13a5.08,5.08,0,0,0,1.33-4.55c-.9-3.59-4.85-4-5.78-.63C7.5,18,11.75,21.66,15,21.42c4.39-.33,7.24-7.54,4.26-13.67"/><path class="cls-1" d="M5,7.49c-3.89,8.27.87,13.72,3.65,13.93a4,4,0,0,0,1.74-.3,5.14,5.14,0,0,0,1.21-.69"/><rect class="cls-1" x="4.32" y="2.65" width="3" height="5" rx="1" transform="translate(2.34 -1.8) rotate(21.91)"/><rect class="cls-1" x="16.54" y="2.79" width="3" height="5" rx="1" transform="translate(-0.23 9.73) rotate(-30)"/></svg>