<svg id="Layer_1" data-name="Layer 1" xmlns="http://www.w3.org/2000/svg" viewBox="0 0 24 24"><defs><style>.cls-1{fill:none;stroke:#000;stroke-linecap:round;stroke-linejoin:round;}</style></defs><title>kayak</title><path class="cls-1" d="M6.7,9.53a18.7,18.7,0,0,0-4.19,12,18.7,18.7,0,0,0,12-4.19"/><path class="cls-1" d="M16,16a18.77,18.77,0,0,0,5.5-13.48A18.77,18.77,0,0,0,8,8"/><line class="cls-1" x1="6.5" y1="6.5" x2="17.5" y2="17.5"/><path class="cls-1" d="M17.48,17.48s-.64,1.94,1.94,4.52L22,19.42c-2.58-2.58-4.52-1.94-4.52-1.94"/><path class="cls-1" d="M6.52,6.52S7.16,4.58,4.58,2L2,4.58C4.58,7.16,6.52,6.52,6.52,6.52"/><path class="cls-1" d="M13.94,13.94c1.78-1.79,2.35-4.1,1.29-5.17s-3.38-.49-5.17,1.29"/><path class="cls-1" d="M16.71,5.16a2.09,2.09,0,0,1,2.13,2.13"/><path class="cls-1" d="M5.16,16.71a2.09,2.09,0,0,0,2.13,2.13"/><path class="cls-1" d="M8.86,11.69c-.76,1.38-.85,2.77-.09,3.54s2.16.67,3.54-.09"/></svg>