<svg id="Layer_1" data-name="Layer 1" xmlns="http://www.w3.org/2000/svg" viewBox="0 0 24 24"><defs><style>.cls-1{fill:none;stroke:#000;stroke-linecap:round;stroke-linejoin:round;}</style></defs><title>meditation</title><ellipse class="cls-1" cx="12" cy="4.26" rx="2.1" ry="2.5"/><path class="cls-1" d="M13.69,21.9c8.22,1.08,7.53-3,4.42-3.29-3.83-.38-5.93,3.63-10.47,3.63-6.5,0-4.15-6.15,2.5-2.76"/><path class="cls-1" d="M9.28,11.81a5.69,5.69,0,0,1,.42,2.56c-.08,1.17-.86,1.88-1.34,3"/><path class="cls-1" d="M14.72,11.81a5.69,5.69,0,0,0-.42,2.56c.08,1.17.86,1.88,1.34,3"/><path class="cls-1" d="M9.86,8.1c-.07.1-3.34-.19-2.72,4.22C7.6,15.59,6.46,15.94,5,17.1H5"/><path class="cls-1" d="M14.14,8.1c.07.1,3.34-.19,2.72,4.22-.46,3.27.68,3.62,2.17,4.78h0"/></svg>