<svg id="Layer_1" data-name="Layer 1" xmlns="http://www.w3.org/2000/svg" viewBox="0 0 24 24"><defs><style>.cls-1{fill:none;stroke:#000;stroke-linecap:round;stroke-linejoin:round;}</style></defs><title>swimming-pool</title><path class="cls-1" d="M6.51,4.5a2,2,0,0,1,2-2h0a2,2,0,0,1,2,2v11"/><path class="cls-1" d="M14.51,4.5a2,2,0,0,1,2-2h0a2,2,0,0,1,2,2v11"/><line class="cls-1" x1="10.56" y1="8.53" x2="18.51" y2="8.5"/><line class="cls-1" x1="10.56" y1="12.53" x2="18.51" y2="12.5"/><path class="cls-1" d="M3.5,17.78s3,0,4-2c0,0,4,5,8,0,0,0,2,3,5,2"/><path class="cls-1" d="M20.5,21.78s-3,0-4-2c0,0-2.64,3.3-5.78,1.85A6.21,6.21,0,0,1,8.5,19.78s-2,3-5,2"/></svg>