<svg height="512" viewBox="0 0 256 256" width="512" xmlns="http://www.w3.org/2000/svg"><g id="body-fat-percentage"><g><path d="m171.387 106.438c2.158-1.855 4.087-5.342 2.752-10.9a23.2 23.2 0 0 0 -2.866-6.154 58.541 58.541 0 0 1 -4.886-10.062 66.989 66.989 0 0 1 -3.764-15.541 59.9 59.9 0 0 1 -.082-15.382c2.106-17.037 5.429-37.87 5.462-38.079a2 2 0 0 0 -1.975-2.32h-111.979a2 2 0 0 0 -1.974 2.316c.033.208 3.356 21.04 5.462 38.078a59.911 59.911 0 0 1 -.082 15.383 66.962 66.962 0 0 1 -3.765 15.541 58.5 58.5 0 0 1 -4.89 10.062 23.179 23.179 0 0 0 -2.865 6.153c-1.336 5.563.593 9.05 2.751 10.905a90.208 90.208 0 0 0 -12.628 24.886c-21.858 36.313-14.506 68.853 26.156 115.983a2 2 0 0 0 1.513.693h92.623a2 2 0 0 0 1.513-.693c40.662-47.13 48.009-79.669 26.152-115.983a90.21 90.21 0 0 0 -12.628-24.886zm-61.357 111.451a124 124 0 0 0 -10.13-31.463 25.933 25.933 0 0 0 10.024 2.075 26.4 26.4 0 0 0 10.25-2.15 123.857 123.857 0 0 0 -10.144 31.538zm13.388-37.77c-9.083 5.806-17.852 5.824-26.769.055a112.25 112.25 0 0 0 -56.223-49.242 86.686 86.686 0 0 1 11.767-22.518 148.256 148.256 0 0 0 16.817 6.986c5.514 4.964 9.851 8.146 12.881 9.438a50.666 50.666 0 0 0 19.431 3.564 54.43 54.43 0 0 0 6.9-.4h3.632c1.634.219 14.755 1.775 26.332-3.16 3.03-1.292 7.368-4.475 12.881-9.438a148.248 148.248 0 0 0 16.817-6.988 86.684 86.684 0 0 1 11.766 22.515 112.094 112.094 0 0 0 -56.232 49.188zm-73.59-83.653a19.9 19.9 0 0 1 2.43-5.068 61.987 61.987 0 0 0 5.184-10.7 70.565 70.565 0 0 0 3.975-16.387 63.9 63.9 0 0 0 .09-16.412c-1.7-13.76-4.192-29.976-5.119-35.9h107.3c-.926 5.928-3.417 22.143-5.119 35.9a63.888 63.888 0 0 0 .09 16.411 70.592 70.592 0 0 0 3.975 16.39 62.03 62.03 0 0 0 5.185 10.7 19.92 19.92 0 0 1 2.431 5.07c1.426 5.941-2.21 7.493-2.6 7.641a1.934 1.934 0 0 0 -.241.1q-4.765 2.371-9.52 4.335a1.993 1.993 0 0 0 -3.339-1.948c-.025.025-2.545 2.579-5.841 5.555l-.008.007-.01.009c-5.182 4.69-9.468 7.884-12.068 8.993-11.05 4.711-24.205 2.88-24.337 2.861a2.03 2.03 0 0 0 -.288-.021h-3.909a1.974 1.974 0 0 0 -.289.021c-.131.019-13.253 1.865-24.336-2.861-2.6-1.109-6.887-4.3-12.07-9l-.009-.008-.006-.006c-3.3-2.975-5.816-5.53-5.842-5.555a1.993 1.993 0 0 0 -3.339 1.948q-4.744-1.968-9.52-4.335a1.934 1.934 0 0 0 -.241-.1c-.172-.055-4.089-1.478-2.609-7.64zm-11.036 38.124c7.961 2.961 36.375 15.411 54.383 47.573a1.982 1.982 0 0 0 .349.635c7.337 13.31 12.887 29.949 14.507 50.635q-.388 5.12-.448 10.567h-42.94c-38.319-44.644-45.643-75.533-25.851-109.41zm116.641 109.41h-43.851c.3-25.646 6.388-45.666 14.912-61.161.006-.006.014-.01.02-.016a2 2 0 0 0 .482-.877c17.984-31.973 46.257-44.375 54.287-47.358 19.79 33.877 12.471 64.767-25.85 109.412z"/><path d="m110.038 97a2 2 0 0 0 2-2v-5a2 2 0 1 0 -4 0v5a2 2 0 0 0 2 2z"/><path d="m230.726 96.632a1.9 1.9 0 0 0 -.183-1.6 211.488 211.488 0 0 0 -10.234-44.81 7.981 7.981 0 0 0 -8.744-5.281l-.125.019a7.9 7.9 0 0 0 -5.583 3.746 8.017 8.017 0 0 0 -.7 6.785 195.933 195.933 0 0 1 10.848 64.509 195.3 195.3 0 0 1 -14.952 75.285 8.049 8.049 0 0 0 .3 6.841 7.8 7.8 0 0 0 5.276 4.026l.32.068a7.779 7.779 0 0 0 1.607.168 7.953 7.953 0 0 0 7.317-4.937 211.736 211.736 0 0 0 16.127-81.451 215.573 215.573 0 0 0 -1.274-23.368zm-21.442-45.864a3.889 3.889 0 0 1 2.816-1.868l.063-.009a3.992 3.992 0 0 1 4.365 2.637 207.459 207.459 0 0 1 9.874 42.508h-8.075a199.02 199.02 0 0 0 -9.4-39.864 4.023 4.023 0 0 1 .357-3.404zm2.893 149.152a3.92 3.92 0 0 1 -4.411 2.385l-.295-.062a3.768 3.768 0 0 1 -2.578-1.973 4.067 4.067 0 0 1 -.147-3.451 199.273 199.273 0 0 0 15.254-76.819 202.56 202.56 0 0 0 -1.2-21.96h8.056a211.678 211.678 0 0 1 1.144 21.96 207.758 207.758 0 0 1 -15.824 79.92z"/><path d="m182.016 62a6 6 0 1 0 -6-6 6.006 6.006 0 0 0 6 6zm0-8a2 2 0 1 1 -2 2 2 2 0 0 1 2-2z"/><path d="m204.009 72a6 6 0 1 0 -6 6 6.006 6.006 0 0 0 6-6zm-6 2a2 2 0 1 1 2-2 2 2 0 0 1 -1.998 2z"/><path d="m181.121 81.789a2 2 0 0 0 2.683-.895l15.995-32a2 2 0 1 0 -3.577-1.789l-15.995 32a2 2 0 0 0 .894 2.684z"/></g></g></svg>