<svg id="Layer_1" data-name="Layer 1" xmlns="http://www.w3.org/2000/svg" viewBox="0 0 24 24"><defs><style>.cls-1{fill:none;stroke:#000;stroke-linecap:round;stroke-linejoin:round;}</style></defs><title>laurel-wreath</title><path class="cls-1" d="M8,6.21a7.27,7.27,0,0,0,2.5,13.73"/><path class="cls-1" d="M8.32,19.36a2.94,2.94,0,0,0-3.7,1.13,3,3,0,0,0,3.5.17"/><path class="cls-1" d="M5.28,16.85a2.92,2.92,0,0,0-3.61-1.37,3,3,0,0,0,2.66,2.28"/><path class="cls-1" d="M4,13a2.9,2.9,0,0,0-2.38-3A3,3,0,0,0,2.7,13.28"/><path class="cls-1" d="M5.1,8.84A2.91,2.91,0,0,0,4.54,5a3,3,0,0,0-.69,3.43"/><path class="cls-1" d="M8,6.21A2.91,2.91,0,0,0,9.62,2.7,3,3,0,0,0,7.17,5.2"/><path class="cls-1" d="M16,6.21a7.27,7.27,0,0,1-2.5,13.73"/><path class="cls-1" d="M15.68,19.36a2.94,2.94,0,0,1,3.7,1.13,3,3,0,0,1-3.5.17"/><path class="cls-1" d="M18.72,16.85a2.92,2.92,0,0,1,3.61-1.37,3,3,0,0,1-2.66,2.28"/><path class="cls-1" d="M20,13a2.9,2.9,0,0,1,2.38-3,3,3,0,0,1-1.09,3.32"/><path class="cls-1" d="M18.9,8.84A2.91,2.91,0,0,1,19.46,5a3,3,0,0,1,.69,3.43"/><path class="cls-1" d="M16,6.21A2.91,2.91,0,0,1,14.38,2.7a3,3,0,0,1,2.45,2.5"/></svg>