<svg id="Layer_1" data-name="Layer 1" xmlns="http://www.w3.org/2000/svg" viewBox="0 0 24 24"><defs><style>.cls-1,.cls-2{fill:none;stroke:#000;stroke-linecap:round;stroke-miterlimit:10;}.cls-2{fill-rule:evenodd;}</style></defs><title>dumbell</title><rect class="cls-1" x="5.5" y="5.5" width="3" height="14" rx="1"/><path class="cls-2" d="M4,16.5a1,1,0,0,1-1-1v-6a1,1,0,0,1,1-1"/><rect class="cls-1" x="15.5" y="5.5" width="3" height="14" rx="1" transform="translate(34 25) rotate(180)"/><path class="cls-2" d="M20,8.5a1,1,0,0,1,1,1v6a1,1,0,0,1-1,1"/><line class="cls-1" x1="15" y1="13.5" x2="10" y2="13.5"/><line class="cls-1" x1="10" y1="11.5" x2="15" y2="11.5"/><path class="cls-2" d="M22.28,11.5a1.39,1.39,0,0,1,0,2"/><path class="cls-2" d="M1.72,13.5a1.39,1.39,0,0,1,0-2"/></svg>