<svg id="Layer_1" data-name="Layer 1" xmlns="http://www.w3.org/2000/svg" viewBox="0 0 24 24"><defs><style>.cls-1,.cls-2,.cls-3{fill:none;stroke:#000;}.cls-1,.cls-3{stroke-linecap:round;stroke-linejoin:round;}.cls-2{stroke-miterlimit:10;}</style></defs><title>smartwatch-gps</title><path class="cls-1" d="M11.75,10.89a.25.25,0,0,1,.5,0"/><path class="cls-1" d="M12.25,10.89a.25.25,0,0,1-.5,0"/><path class="cls-1" d="M15,10.89c0,2.33-3,5.22-3,5.22s-3-2.89-3-5.22a3,3,0,1,1,6,0Z"/><rect class="cls-2" x="4.5" y="4.5" width="15" height="15" rx="2"/><path class="cls-3" d="M20.75,11.5a.5.5,0,0,0,.5-.5V9a.5.5,0,0,0-.5-.5"/><path class="cls-1" d="M17.75,4.5s-.82,0-1.7-2.37a1,1,0,0,0-.89-.63H8.84A1,1,0,0,0,8,2.13C7.07,4.5,6.25,4.5,6.25,4.5"/><path class="cls-1" d="M6.25,19.5s.82,0,1.7,2.37a1,1,0,0,0,.89.63h6.32a1,1,0,0,0,.89-.63c.88-2.37,1.7-2.37,1.7-2.37"/></svg>