<svg id="Layer_1" data-name="Layer 1" xmlns="http://www.w3.org/2000/svg" viewBox="0 0 24 24"><defs><style>.cls-1{fill:none;stroke:#000;stroke-linecap:round;stroke-linejoin:round;}</style></defs><title>healthy-diet</title><path class="cls-1" d="M13.24,4.88C15.48,4.62,17,3.13,16.71,2.6s-1.58-.33-2.41-.05a5.12,5.12,0,0,0-1.89,1.23,4.44,4.44,0,0,0-.63.83"/><path class="cls-1" d="M18.89,16.87c-.11.21-.22.42-.34.63-1.37,2.38-3.37,4.09-5.14,3.64a2.52,2.52,0,0,1-1.07-.59,1.28,1.28,0,0,0-1.68,0,2.52,2.52,0,0,1-1.07.59C7,21.79,3.91,17.82,3,13.92S3.87,7.71,6.44,7a5.73,5.73,0,0,1,3-.12,3.69,3.69,0,0,1,.58.23A3.75,3.75,0,0,1,11.5,8.37"/><path class="cls-1" d="M11.5,8.36A6.09,6.09,0,0,1,13.59,7.1a4.8,4.8,0,0,1,3-.08A4.66,4.66,0,0,1,18.77,8.2"/><path class="cls-1" d="M10.45,3.13a2.77,2.77,0,0,1,1.4,2.41,2.33,2.33,0,0,1,0,.53"/><path class="cls-1" d="M19,12v3.09"/><path class="cls-1" d="M16.57,12.32v2.94"/><path class="cls-1" d="M14.12,13.05V15.9"/><path class="cls-1" d="M11.67,13.68v2.93"/><path class="cls-1" d="M9.22,13.72v3.1"/><path class="cls-1" d="M20.17,17.59A1.47,1.47,0,0,0,21.31,17a1,1,0,0,0-.47-1.54c-4.71-1.54-9.61,3.12-14.32.81V11.09c4.46,2.19,8.92-1.87,13.37-1a2.11,2.11,0,0,1,1.6,2.12v4.18"/></svg>