<?xml version="1.0" encoding="UTF-8"?>
<svg xmlns="http://www.w3.org/2000/svg" width="512" height="512" viewBox="0 0 128 128"><g><path d="M97.905,78.089a1.75,1.75,0,0,0,0,3.5,4.588,4.588,0,1,0,0-9.175,1.75,1.75,0,0,0,0,3.5,1.088,1.088,0,1,1,0,2.175Z"/><path d="M30.1,75.914a1.75,1.75,0,0,0,0-3.5,4.588,4.588,0,1,0,0,9.175,1.75,1.75,0,0,0,0-3.5,1.088,1.088,0,1,1,0-2.175Z"/><path d="M45.233,71.529A1.755,1.755,0,0,0,47.356,72.8c2.177-.546,7.061-1,8.259,1.088a1.75,1.75,0,1,0,3.034-1.745c-2.834-4.93-11.2-2.975-12.15-2.737A1.749,1.749,0,0,0,45.233,71.529Z"/><path d="M70,74.533a1.75,1.75,0,0,0,2.39-.645c1.2-2.085,6.082-1.634,8.259-1.088a1.75,1.75,0,0,0,.857-3.394c-.946-.239-9.314-2.2-12.15,2.737A1.75,1.75,0,0,0,70,74.533Z"/><path d="M52.316,88.505a1.734,1.734,0,0,0,1.144,2.149,1.764,1.764,0,0,0,2.2-1.11c.052-.15,1.361-3.692,8.342-3.692s8.29,3.542,8.331,3.659a1.75,1.75,0,0,0,3.353-1.006c-.076-.251-1.958-6.153-11.684-6.153S52.392,88.254,52.316,88.505Z"/><path d="M119.937,102.84V60.909a9.813,9.813,0,1,0-11.014-12.877c-5.078-.649-12.768-1.448-22.746-1.969a33.619,33.619,0,0,0-44.354,0c-9.978.521-17.668,1.32-22.746,1.969A9.811,9.811,0,1,0,8.063,60.909V102.84a9.813,9.813,0,1,0,11.015,12.876c6.725.859,17.122,1.873,30.908,2.31v8.224a1.751,1.751,0,0,0,1.75,1.75H76.264a1.751,1.751,0,0,0,1.75-1.75v-8.224c13.786-.437,24.183-1.451,30.908-2.31a9.811,9.811,0,1,0,11.015-12.876ZM83.972,48.794a30.446,30.446,0,0,1,9.63,18.19c.063.459.117.922.159,1.389a1.749,1.749,0,0,0,2.2,1.53,7.369,7.369,0,1,1,.077,14.216A1.751,1.751,0,0,0,93.852,85.7a16.39,16.39,0,0,1-16.326,15.293H50.474A16.39,16.39,0,0,1,34.148,85.7c-.2-2.24-2.6-1.426-4.053-1.331A7.367,7.367,0,1,1,32.036,69.9a1.749,1.749,0,0,0,2.2-1.53c.042-.467.1-.93.159-1.389a29.949,29.949,0,0,1,49.574-18.19ZM18,112.044a1.748,1.748,0,0,0-1.962,1.458,6.309,6.309,0,1,1-6.223-7.318,1.751,1.751,0,0,0,1.75-1.75V59.315a1.751,1.751,0,0,0-1.75-1.75,6.313,6.313,0,1,1,6.222-7.318A1.75,1.75,0,0,0,18,51.7c4.351-.589,11.188-1.364,20.238-1.93a33.493,33.493,0,0,0-7.26,16.4,10.865,10.865,0,1,0-.1,21.667,20.045,20.045,0,0,0,19.113,16.648v10.039A317.057,317.057,0,0,1,18,112.044ZM74.514,124.5H53.486V104.493H74.514Zm43.673-5.691a6.276,6.276,0,0,1-6.223-5.307,1.75,1.75,0,0,0-1.726-1.474,1.712,1.712,0,0,0-.236.016,317.057,317.057,0,0,1-31.988,2.482V104.487A20.045,20.045,0,0,0,97.127,87.839a10.865,10.865,0,1,0-.1-21.667c-.109-.746-.251-1.481-.407-2.209l-.017-.077a33.166,33.166,0,0,0-6.836-14.112c9.05.566,15.887,1.341,20.238,1.93a1.753,1.753,0,0,0,1.963-1.457,6.308,6.308,0,1,1,6.222,7.318,1.751,1.751,0,0,0-1.75,1.75v45.119a1.751,1.751,0,0,0,1.75,1.75,6.313,6.313,0,1,1,0,12.625Z"/><path d="M87.205,36.175a17.926,17.926,0,0,0,7.576-1.664,1.75,1.75,0,0,0,0-3.177,14.586,14.586,0,0,1,0-26.493,1.751,1.751,0,0,0,0-3.178,18.087,18.087,0,1,0-7.576,34.512Zm0-32.675a14.658,14.658,0,0,1,2.672.244,18.076,18.076,0,0,0,0,28.687A14.589,14.589,0,1,1,87.205,3.5Z"/><path d="M95.238,23.073l1.36,5.316a1.75,1.75,0,0,0,1.7,1.317H124a1.75,1.75,0,0,0,1.75-1.75V22.292a1.749,1.749,0,0,0-1.75-1.75h-7.8l10-5.471a1.751,1.751,0,0,0,.855-1.969L125.7,7.786A1.751,1.751,0,0,0,124,6.47H98.293a1.75,1.75,0,0,0-1.75,1.75v5.664a1.751,1.751,0,0,0,1.75,1.75h7.794L96.093,21.1A1.751,1.751,0,0,0,95.238,23.073Zm18.531-7.654a1.75,1.75,0,0,0-.84-3.285H100.043V9.97h22.6l.686,2.683-14.8,8.1a1.751,1.751,0,0,0,.841,3.286h12.886v2.164h-22.6l-.687-2.684Z"/></g></svg>
