<svg id="Layer_1" data-name="Layer 1" xmlns="http://www.w3.org/2000/svg" viewBox="0 0 24 24"><defs><style>.cls-1,.cls-2{fill:none;stroke:#000;stroke-linecap:round;stroke-linejoin:round;}</style></defs><title>calendar-workouts</title><polyline class="cls-1" points="5.33 12.73 6.42 14.06 8.33 11.73"/><polyline class="cls-1" points="10.33 12.73 11.42 14.06 13.33 11.73"/><polyline class="cls-1" points="15.33 12.73 16.42 14.06 18.33 11.73"/><polyline class="cls-1" points="5.33 16.73 6.42 18.06 8.33 15.73"/><polyline class="cls-1" points="10.33 16.73 11.42 18.06 13.33 15.73"/><line class="cls-2" x1="4.5" y1="9.5" x2="21.5" y2="9.5"/><path class="cls-2" d="M7,4.5H4.29a1.91,1.91,0,0,0-1.79,2v12a1.91,1.91,0,0,0,1.79,2H19.71a1.91,1.91,0,0,0,1.79-2V6.5a1.91,1.91,0,0,0-1.79-2H18.5"/><line class="cls-2" x1="16.5" y1="2.5" x2="16.5" y2="6.5"/><line class="cls-2" x1="7.5" y1="2.5" x2="7.5" y2="6.5"/><line class="cls-2" x1="9.5" y1="4.5" x2="16.46" y2="4.49"/></svg>