<svg id="Layer_1" data-name="Layer 1" xmlns="http://www.w3.org/2000/svg" viewBox="0 0 24 24"><defs><style>.cls-1{fill:none;stroke:#000;stroke-linecap:round;stroke-linejoin:round;}</style></defs><title>running-man</title><circle class="cls-1" cx="12" cy="4" r="2"/><path class="cls-1" d="M12.78,10.76l1.27.63a1,1,0,0,0,1-.09l3-2.36a1,1,0,1,0-1.2-1.6l-2.55,2L10.13,7.2a2,2,0,0,0-2.19.25L6.25,8.87a1.23,1.23,0,0,0-.31,1.5l.89,1.72"/><path class="cls-1" d="M12.61,14.13,15,15.61a1,1,0,0,1,.53.69l1,5a1,1,0,0,1-.78,1.18l-.2,0a1,1,0,0,1-1-.8l-.9-4.52-2-.67"/><path class="cls-1" d="M11.79,12.1,9.46,18.77a1,1,0,0,1-1,.73h-5a1,1,0,0,1,0-2H7.75l.75-8"/></svg>