<svg xmlns="http://www.w3.org/2000/svg" viewBox="0 0 24 24" fill="none">
	<g stroke="#000" stroke-width="1.9" stroke-linecap="round" stroke-linejoin="round">
		<path d="M6.36 1.68A8.29 8.29 0 0 1 8.23 6.51c.06 2.25-1 3.75-2.14 5.89-1.53 2.91-1 5 1.07 9.92"/>
		<path d="M17.64 1.68a8.29 8.29 0 0 0-1.87 4.83c-.06 2.25 1 3.75 2.14 5.89 1.53 2.91 1 5-1.07 9.92"/>
		<path d="M6 12.81c1.86.49 3.9.77 6 .77s4.14-.28 6-.77"/>
		<path d="M8.64 19.3s2.83.94 3.36-1.85"/>
		<path d="M15.36 19.3s-2.83.94-3.36-1.85"/>
		<line x1="12" y1="22.32" x2="12" y2="17.45"/>
		<path d="M4.2 11.15c1.9 1.25 4.39 1.85 7.8 1.85s5.9-.6 7.8-1.85"/>
		<line x1="4.2" y1="11.15" x2="4.2" y2="13.25"/>
		<line x1="19.8" y1="11.15" x2="19.8" y2="13.25"/>
		<line x1="8.1" y1="11.8" x2="8.1" y2="12.9"/>
		<line x1="10.7" y1="11.95" x2="10.7" y2="12.95"/>
		<line x1="13.3" y1="11.95" x2="13.3" y2="12.95"/>
		<line x1="15.9" y1="11.8" x2="15.9" y2="12.9"/>
	</g>
</svg>