<svg id="Layer_1" data-name="Layer 1" xmlns="http://www.w3.org/2000/svg" viewBox="0 0 24 24"><defs><style>.cls-1,.cls-2,.cls-3,.cls-4{fill:none;stroke:#000;}.cls-1,.cls-3,.cls-4{stroke-linecap:round;}.cls-1,.cls-2{stroke-miterlimit:10;}.cls-3,.cls-4{stroke-linejoin:round;}</style></defs><title>smartwatch-happy</title><path class="cls-1" d="M8.35,10A2.28,2.28,0,0,1,11,10"/><path class="cls-1" d="M14.1,13.74a2.77,2.77,0,0,1-4.17,0"/><path class="cls-1" d="M13,10a2.28,2.28,0,0,1,2.61,0"/><rect class="cls-2" x="4.5" y="4.5" width="15" height="15" rx="2"/><path class="cls-3" d="M20.75,11.5a.5.5,0,0,0,.5-.5V9a.5.5,0,0,0-.5-.5"/><path class="cls-4" d="M17.75,4.5s-.82,0-1.7-2.37a1,1,0,0,0-.89-.63H8.84A1,1,0,0,0,8,2.13C7.07,4.5,6.25,4.5,6.25,4.5"/><path class="cls-4" d="M6.25,19.5s.82,0,1.7,2.37a1,1,0,0,0,.89.63h6.32a1,1,0,0,0,.89-.63c.88-2.37,1.7-2.37,1.7-2.37"/></svg>