<svg id="Layer_1" data-name="Layer 1" xmlns="http://www.w3.org/2000/svg" viewBox="0 0 24 24"><defs><style>.cls-1{fill:none;stroke:#000;stroke-linecap:round;stroke-linejoin:round;}</style></defs><title>shoulders-back</title><path class="cls-1" d="M6.64,10.46a13.78,13.78,0,0,1,1.12,5.23c0,2.44-1.21,4.06-1.89,6.39"/><path class="cls-1" d="M17.36,10.46a13.78,13.78,0,0,0-1.12,5.23c0,2.44,1.21,4.06,1.89,6.39"/><path class="cls-1" d="M9.87,1.87h0A3.39,3.39,0,0,1,7.75,5L4.69,6.24A2.25,2.25,0,0,0,3.27,8.16a8.59,8.59,0,0,0,.08,3L4,14.58"/><path class="cls-1" d="M14.13,1.87h0A3.39,3.39,0,0,0,16.25,5l3.06,1.24a2.25,2.25,0,0,1,1.42,1.92,8.59,8.59,0,0,1-.08,3L20,14.58"/><line class="cls-1" x1="12" y1="14.36" x2="12" y2="19.48"/></svg>