<svg height="512" viewBox="0 0 128 128" width="512" xmlns="http://www.w3.org/2000/svg"><g><path d="m90.751 51.492c-6.6-12.068-11.369-20.788 2.815-38.2a1.749 1.749 0 0 0 -1.356-2.855h-56.42a1.75 1.75 0 0 0 -1.357 2.855c14.19 17.423 9.415 26.144 2.806 38.212-1.023 1.869-2.081 3.8-3.113 5.848a62 62 0 0 0 -5.886 16.668c-2.326 12.339-.39 26.218 5.919 42.43a1.75 1.75 0 0 0 1.631 1.115h56.42a1.75 1.75 0 0 0 1.631-1.115c11.336-29.135 7.606-45.4-3.09-64.958zm-26.751 37.434c-6.933-6.642-26.428-13.773-32-15.726a56.6 56.6 0 0 1 4.36-12.436c12.51 8.664 27.035 8.541 27.617 8.53.635.01 15.156.132 27.663-8.524a57.565 57.565 0 0 1 4.343 12.44c-5.615 1.964-25.06 9.084-31.983 15.716zm-24.637-74.991h49.274c-12.867 17.465-7.324 27.594-.957 39.236.782 1.43 1.585 2.9 2.377 4.43-11.668 8.299-25.879 8.199-26.085 8.199-.153.006-14.334.124-26.03-8.194.788-1.513 1.586-2.991 2.367-4.417 6.376-11.648 11.924-21.789-.946-39.254zm-8.017 62.745c8.649 3.043 26.347 10.07 30.9 15.478v21.907h-25.253c-5.393-14.222-7.243-26.486-5.647-37.385zm59.662 37.385h-25.258v-21.907c4.55-5.4 22.2-12.413 30.864-15.464 1.399 9.514.432 21.43-5.606 37.371z"/><path d="m64 58.34a5.886 5.886 0 1 0 -5.885-5.886 5.893 5.893 0 0 0 5.885 5.886zm0-8.272a2.386 2.386 0 1 1 -2.385 2.386 2.389 2.389 0 0 1 2.385-2.386z"/><path d="m35.493 35.139a1.862 1.862 0 0 0 -.418-1.139l-8.364-9.819a1.75 1.75 0 0 0 -2.664 2.27l5.906 6.934h-19.332a1.75 1.75 0 0 0 0 3.5h19.332l-5.906 6.933a1.75 1.75 0 1 0 2.664 2.269l8.364-9.818a1.873 1.873 0 0 0 .418-1.13z"/><path d="m117.379 33.389h-19.332l5.906-6.934a1.75 1.75 0 0 0 -2.664-2.27l-8.363 9.815c-.011.012-.014.028-.024.04a1.726 1.726 0 0 0 0 2.189c.01.012.013.028.024.04l8.363 9.818a1.75 1.75 0 1 0 2.664-2.269l-5.906-6.933h19.332a1.75 1.75 0 0 0 0-3.5z"/></g></svg>