<svg height="512" viewBox="0 0 128 128" width="512" xmlns="http://www.w3.org/2000/svg"><g><path d="m108.936 72.746h-4.036l-8.788-32.516 3.506-2.03a7.006 7.006 0 0 0 -7.01-12.132l-25.239 14.6a7 7 0 1 0 7.008 12.119l10.307-5.958 7.5 27.726a19.97 19.97 0 0 0 -6.535 4.759h-56.5a11.907 11.907 0 0 0 -11.758 13.7 12.091 12.091 0 0 0 10.353 9.956v2.43a5.36 5.36 0 0 0 5.354 5.354h.424a5.36 5.36 0 0 0 5.354-5.354v-2.288l50.269.011v2.277a5.359 5.359 0 0 0 5.353 5.354h.424a5.359 5.359 0 0 0 5.353-5.354v-2.277h.587a9.9 9.9 0 0 0 9.893-9.893v-18.671a1.86 1.86 0 0 0 -1.819-1.813zm-36.313-22.981a3.5 3.5 0 1 1 -3.506-6.058l25.243-14.607a3.505 3.505 0 0 1 3.511 6.068zm24.147 55.635a1.856 1.856 0 0 1 -1.853 1.854h-.424a1.856 1.856 0 0 1 -1.853-1.854v-2.277h4.13zm-3.793-63.352 8.3 30.7h-.753a20.017 20.017 0 0 0 -5.029.649l-7.675-28.373zm-65.826 49.6a1.971 1.971 0 0 1 .4-1.679 2.067 2.067 0 0 1 1.59-.793h.008a2.035 2.035 0 0 1 .091 4.067 2.25 2.25 0 0 1 -2.089-1.597zm7.137-2.472h46.434a20.4 20.4 0 0 0 -.356 4.081h-46.08a5.468 5.468 0 0 0 0-4.081zm-13.441 3.324a8.408 8.408 0 0 1 8.3-9.674h53.936a20.064 20.064 0 0 0 -1.359 2.853h-52.582-.024a5.568 5.568 0 0 0 -5.381 6.741 5.794 5.794 0 0 0 5.679 4.339h50.95v2.853h-50.866a8.647 8.647 0 0 1 -8.653-7.112zm14.524 12.9a1.856 1.856 0 0 1 -1.854 1.854h-.424a1.856 1.856 0 0 1 -1.854-1.854v-2.277h4.132zm71.879-12.17a6.4 6.4 0 0 1 -6.393 6.393h-16.991v-6.736a16.656 16.656 0 0 1 16.653-16.641h6.731z"/><path d="m102.294 85.674h-11.404a1.75 1.75 0 0 0 0 3.5h11.4a1.75 1.75 0 1 0 0-3.5z"/><path d="m94.842 81.362a1.749 1.749 0 0 0 1.75 1.75h5.7a1.75 1.75 0 1 0 0-3.5h-5.7a1.75 1.75 0 0 0 -1.75 1.75z"/><path d="m102.294 92.646h-11.404a1.75 1.75 0 0 0 0 3.5h11.4a1.75 1.75 0 0 0 0-3.5z"/></g></svg>