<?xml version="1.0" encoding="iso-8859-1"?>
<!-- Generator: Adobe Illustrator 19.0.0, SVG Export Plug-In . SVG Version: 6.00 Build 0)  -->
<svg version="1.1" id="Capa_1" xmlns="http://www.w3.org/2000/svg" xmlns:xlink="http://www.w3.org/1999/xlink" x="0px" y="0px"
	 viewBox="0 0 365.6 365.6" style="enable-background:new 0 0 365.6 365.6;" xml:space="preserve">
<g>
	<g>
		<path d="M357.6,72.8H184.8c-10.4-40-47.2-70.4-90.4-70.4C42.4,2.4,0,44.8,0,96.8v172c0,52,41.6,94.4,93.6,94.4
			c11.2,0,21.6-2.4,32-5.6h232c4.8,0,8-3.2,8-8V80.8C365.6,76,362.4,72.8,357.6,72.8z M15.2,96.8H16c0-43.2,35.2-78.4,78.4-78.4
			s78.4,35.2,78.4,78.4v120c-18.4-24.8-46.4-41.6-79.2-41.6S32.8,192,15.2,216.8V96.8z M93.6,348c-43.2,0-78.4-35.2-78.4-78.4
			c0-43.2,35.2-78.4,78.4-78.4s78.4,35.2,78.4,78.4C172,312.8,136.8,348,93.6,348z M348.8,341.6H153.6
			c20.8-17.6,34.4-43.2,34.4-72.8v-172c0-2.4,0-5.6-0.8-8h161.6V341.6z"/>
	</g>
</g>
<g>
	<g>
		<path d="M93.6,205.6c-34.4,0-63.2,28-63.2,63.2S59.2,332,93.6,332s63.2-28,63.2-63.2S128.8,205.6,93.6,205.6z M93.6,316.8
			c-25.6,0-47.2-20.8-47.2-47.2s21.6-47.2,47.2-47.2s47.2,20.8,47.2,47.2S120,316.8,93.6,316.8z"/>
	</g>
</g>
<g>
	<g>
		<path d="M93.6,239.2c-16.8,0-30.4,13.6-30.4,30.4S76.8,300,93.6,300s30.4-13.6,30.4-30.4S110.4,239.2,93.6,239.2z M93.6,283.2
			c-8,0-14.4-6.4-14.4-14.4s6.4-14.4,14.4-14.4s14.4,6.4,14.4,14.4S101.6,283.2,93.6,283.2z"/>
	</g>
</g>
<g>
</g>
<g>
</g>
<g>
</g>
<g>
</g>
<g>
</g>
<g>
</g>
<g>
</g>
<g>
</g>
<g>
</g>
<g>
</g>
<g>
</g>
<g>
</g>
<g>
</g>
<g>
</g>
<g>
</g>
</svg>
